<svg version="1.1" xmlns="http://www.w3.org/2000/svg" xmlns:xlink="http://www.w3.org/1999/xlink" x="0px" y="0px" viewBox="0 0 64 64" xml:space="preserve" width="64" height="64"><g class="nc-icon-wrapper" fill="#ffffff"><path fill="#ffffff" d="M32,2c-8.271,0-15,6.729-15,15v4c0,8.271,6.729,15,15,15s15-6.729,15-15v-4C47,8.729,40.271,2,32,2z"></path> <path data-color="color-2" fill="#ffffff" d="M51,38c-6.627,0-12,5.373-12,12s5.373,12,12,12s12-5.373,12-12S57.627,38,51,38z M56,51h-4v4 c0,0.552-0.448,1-1,1s-1-0.448-1-1v-4h-4c-0.552,0-1-0.448-1-1s0.448-1,1-1h4v-4c0-0.552,0.448-1,1-1s1,0.448,1,1v4h4 c0.552,0,1,0.448,1,1S56.552,51,56,51z"></path> <path fill="#ffffff" d="M37,50c0-2.977,0.936-5.731,2.52-8H20C9.523,42,1,50.523,1,61c0,0.553,0.447,1,1,1h41.816 C39.738,59.553,37,55.102,37,50z"></path></g></svg>