<svg version="1.1" xmlns="http://www.w3.org/2000/svg" xmlns:xlink="http://www.w3.org/1999/xlink" x="0px" y="0px" viewBox="0 0 64 64" xml:space="preserve" width="64" height="64"><g class="nc-icon-wrapper" fill="#ffffff"><path data-color="color-2" fill="#ffffff" d="M60 58H4a1 1 0 1 0 0 2h56a1 1 0 1 0 0-2z"></path><path fill="#ffffff" d="M8 38.586L37.586 8.999 49 20.413 19.415 50z"></path><path data-color="color-2" fill="#ffffff" d="M6.901 40.315l-2.875 12.46a1.001 1.001 0 0 0 1.199 1.2l12.46-2.875L6.901 40.315z"></path><path data-color="color-2" fill="#ffffff" d="M55 11.586L46.414 3a2 2 0 0 0-2.828 0L39 7.586 50.414 19 55 14.414a2 2 0 0 0 0-2.828z"></path></g></svg>